<svg width="11" height="11" viewBox="3 3 16 16" fill="none" xmlns="http://www.w3.org/2000/svg">
<circle cx="11.0688" cy="11.0714" r="7.02071" fill="#101315" stroke="#21232A" stroke-width="1"/>
<g clip-path="url(#clip0_3029_227)">
<path d="M13.6557 7.84853C13.6284 7.86822 13.6029 7.89025 13.5794 7.91437L9.52611 11.9676L9.57338 11.8381C9.61888 11.7108 9.64183 11.5766 9.64121 11.4414L9.64121 9.16817C9.64801 8.87557 9.44328 8.62053 9.15614 8.56388C8.83884 8.51484 8.54185 8.73228 8.49279 9.0496C8.48883 9.07524 8.48659 9.10112 8.48608 9.12706L8.48608 13.2378C8.4859 13.5589 8.74604 13.8193 9.06712 13.8195L9.06776 13.8195L13.1785 13.8195C13.4996 13.8191 13.7595 13.5584 13.7591 13.2374C13.759 13.2121 13.7574 13.1868 13.7541 13.1618C13.6974 12.8747 13.4424 12.6699 13.1498 12.6767L10.8765 12.6726C10.7558 12.6725 10.6358 12.6913 10.5209 12.7281L10.3421 12.7959L14.3789 8.75914C14.5967 8.55695 14.6342 8.22601 14.4673 7.98015C14.2795 7.71971 13.9162 7.66078 13.6557 7.84853Z" fill="#D5FD5F"/>
</g>
<defs>
<clipPath id="clip0_3029_227">
<rect width="8.5187" height="8.5187" fill="white" transform="translate(7.0625 6.48313)"/>
</clipPath>
</defs>
</svg>
