<svg width="41" height="35" viewBox="0 0 41 35" fill="none" xmlns="http://www.w3.org/2000/svg">
<path d="M37.652 14.366C37.4882 14.3394 37.3223 14.3271 37.1563 14.3293H8.89484L9.51108 14.0427C10.1134 13.7575 10.6615 13.3696 11.1305 12.8962L19.0557 4.97094C20.0995 3.97455 20.2749 2.37169 19.4713 1.17314C18.5361 -0.104047 16.7427 -0.381358 15.4654 0.55385C15.3622 0.629439 15.2642 0.711849 15.172 0.800527L0.840644 15.1318C-0.279348 16.2506 -0.280333 18.0654 0.838404 19.1854L0.840644 19.1876L15.172 33.5189C16.2928 34.6367 18.1076 34.6342 19.2255 33.5133C19.3134 33.425 19.3956 33.3312 19.4713 33.2323C20.2749 32.0337 20.0995 30.4309 19.0557 29.4345L11.1449 21.4949C10.7243 21.0739 10.2408 20.721 9.71172 20.4488L8.85184 20.0618H36.9985C38.4627 20.1162 39.7474 19.0934 40.0224 17.6541C40.2758 16.0916 39.2146 14.6195 37.652 14.366Z" fill="#000"/>
</svg>
