<svg width="23" height="23" viewBox="3 3 16 16" fill="none" xmlns="http://www.w3.org/2000/svg">
<circle cx="11.0688" cy="11.0714" r="7.02071" fill="#101315" stroke="#21232A" stroke-width="1.06484"/>
<g clip-path="url(#clip0_3029_228)">
<path d="M8.9888 13.6373C9.01612 13.6176 9.04168 13.5955 9.06518 13.5714L13.1184 9.51818L13.0711 9.64766C13.0257 9.77495 13.0027 9.90919 13.0033 10.0444L13.0033 12.3176C12.9965 12.6102 13.2013 12.8653 13.4884 12.9219C13.8057 12.971 14.1027 12.7535 14.1517 12.4362C14.1557 12.4105 14.1579 12.3847 14.1585 12.3587L14.1584 8.24794C14.1586 7.92686 13.8985 7.66645 13.5774 7.66627L13.5768 7.66627L9.46599 7.66627C9.14492 7.66672 8.88501 7.92735 8.88544 8.24843C8.88548 8.2737 8.88716 8.29894 8.89048 8.32399C8.94713 8.61113 9.20217 8.81586 9.49476 8.80907L11.768 8.81318C11.8887 8.81324 12.0087 8.79452 12.1236 8.75768L12.3024 8.68985L8.26564 12.7266C8.04785 12.9288 8.0103 13.2598 8.17726 13.5056C8.36502 13.7661 8.72835 13.825 8.9888 13.6373Z" fill="#FF3838"/>
</g>
<defs>
<clipPath id="clip0_3029_228">
<rect width="8.5187" height="8.5187" fill="white" transform="translate(15.582 15.0007) rotate(-180)"/>
</clipPath>
</defs>
</svg>
