<svg width="18" height="18" viewBox="0 0 18 18" fill="none" xmlns="http://www.w3.org/2000/svg">
<g clip-path="url(#clip0_1009_348)">
<path d="M0 15.9559V3.36167C0 2.86971 0.397215 2.47249 0.889178 2.47249H12.0549L10.2802 4.24721H1.77471V15.0668H12.5943V10.4715L14.369 8.69674V15.9559C14.369 16.4443 13.9718 16.8451 13.4798 16.8451H0.889178C0.397215 16.8451 0 16.4479 0 15.9559ZM7.72929 9.14133L5.83432 7.24636C5.30227 6.71431 4.4386 6.71431 3.90655 7.24636C3.64782 7.5051 3.50569 7.84765 3.50569 8.21207C3.50569 8.57648 3.64782 8.91904 3.90655 9.17413L6.76358 12.0312C7.29563 12.5632 8.1593 12.5632 8.69135 12.0312L17.4191 3.30337C17.6779 3.04463 17.82 2.70208 17.82 2.3413C17.82 1.97689 17.6779 1.63434 17.4191 1.3756C16.8871 0.84355 16.0234 0.84355 15.4914 1.3756L7.72929 9.14133Z" fill="#A7A7A7"/>
</g>
<defs>
<clipPath id="clip0_1009_348">
<rect width="17.82" height="17.82" fill="white"/>
</clipPath>
</defs>
</svg>
