<svg width="33" height="33" viewBox="0 0 33 33" fill="none" xmlns="http://www.w3.org/2000/svg">
<circle cx="16.335" cy="16.335" r="16.335" fill="#D5FD5F"/>
<g clip-path="url(#clip0_3011_229)">
<path d="M13.4865 14.2862L10.0411 15.1844C9.61543 15.295 9.19313 14.9933 9.16297 14.5543L8.90155 11.0016C8.87809 10.7033 9.21659 10.5157 9.45791 10.6899L10.4801 11.4206C13.1212 8.31033 17.753 7.69365 21.128 10.1135C22.462 11.0687 23.4105 12.359 23.94 13.7901C24.0875 14.1823 23.8629 14.6146 23.4574 14.7219L22.2575 15.0302C21.9123 15.1207 21.557 14.933 21.4263 14.6012C21.0644 13.6929 20.4477 12.8718 19.593 12.2618C17.4011 10.6933 14.4216 11.0385 12.6385 12.9657L13.6071 13.6594C13.8451 13.8337 13.7747 14.2124 13.4865 14.2862ZM22.958 17.8187L19.5126 18.7136C19.2244 18.7873 19.154 19.166 19.3953 19.3403L20.3639 20.0341C18.5809 21.9646 15.6013 22.3098 13.4094 20.7379C12.5548 20.1279 11.9381 19.3068 11.5761 18.3985C11.4454 18.0667 11.0901 17.879 10.7449 17.9695L9.54505 18.2779C9.13951 18.3818 8.91495 18.8141 9.06242 19.2096C9.59197 20.6374 10.5405 21.9311 11.8744 22.8863C15.2528 25.3061 19.8813 24.6928 22.5223 21.5792L23.5445 22.3098C23.7858 22.4841 24.121 22.2964 24.1009 21.9981L23.8395 18.4455C23.8059 18.0098 23.3836 17.7081 22.958 17.8187Z" fill="#25272E"/>
</g>
<defs>
<clipPath id="clip0_3011_229">
<rect width="17.16" height="17.16" fill="white" transform="translate(7.91992 7.91992)"/>
</clipPath>
</defs>
</svg>
