<svg width="15" height="13" viewBox="0 0 15 13" fill="none" xmlns="http://www.w3.org/2000/svg">
<path d="M13.0793 7.90092C12.4384 8.67797 9.6195 11.0034 8.15332 12.1945C7.63151 12.6199 6.88566 12.6199 6.36384 12.1945C4.89766 11.0034 2.08158 8.67797 1.43782 7.90092C0.456586 6.71834 0 5.59247 0 4.36734C0 3.17058 0.408375 2.07023 1.15139 1.26483C1.90575 0.450914 2.9352 0 4.05539 0C4.89483 0 5.66053 0.266578 6.33548 0.788391C6.68714 1.06348 6.99909 1.38677 7.25716 1.75261C7.51807 1.38961 7.82719 1.06348 8.17884 0.788391C8.8538 0.263742 9.62234 0 10.4618 0C11.5848 0 12.6142 0.450914 13.3658 1.26483C14.106 2.07023 14.5172 3.16774 14.5172 4.36734C14.52 5.59247 14.0634 6.71834 13.0793 7.90092Z" fill="#D5FD5F"/>
</svg>
