<svg width="106" height="31" viewBox="0 0 106 25" fill="none" xmlns="http://www.w3.org/2000/svg">
<path d="M38.7737 4.44058C38.7063 4.2222 38.6133 4.02673 38.4946 3.85418C38.3787 3.67894 38.2385 3.5293 38.0741 3.40528C37.9123 3.28126 37.7263 3.18825 37.516 3.12624C37.3057 3.06153 37.0765 3.02918 36.8285 3.02918C36.3836 3.02918 35.9873 3.14107 35.6395 3.36484C35.2917 3.58862 35.018 3.91754 34.8185 4.35161C34.6217 4.78299 34.5233 5.30873 34.5233 5.92883C34.5233 6.55433 34.6217 7.08411 34.8185 7.51818C35.0153 7.95225 35.289 8.28252 35.6395 8.509C35.99 8.73277 36.3971 8.84466 36.8608 8.84466C37.2814 8.84466 37.6454 8.76378 37.9527 8.60201C38.2628 8.44025 38.5014 8.21108 38.6685 7.91451C38.8357 7.61524 38.9193 7.26475 38.9193 6.86303L39.259 6.9156H37.0104V5.7428H40.3711V6.73766C40.3711 7.44673 40.2201 8.0601 39.9182 8.57775C39.6162 9.0954 39.201 9.49442 38.6726 9.77481C38.1442 10.0525 37.5375 10.1914 36.8527 10.1914C36.0897 10.1914 35.4197 10.0202 34.8428 9.67775C34.2685 9.33265 33.8196 8.84331 33.4961 8.20973C33.1752 7.57345 33.0148 6.81854 33.0148 5.94501C33.0148 5.27637 33.1092 4.67919 33.2979 4.15345C33.4893 3.62771 33.7563 3.18151 34.0987 2.81484C34.4411 2.44547 34.8428 2.16508 35.3038 1.97366C35.7648 1.77954 36.2663 1.68248 36.8082 1.68248C37.2666 1.68248 37.6939 1.74988 38.0902 1.88468C38.4866 2.01679 38.8384 2.20552 39.1458 2.45087C39.4558 2.69621 39.7106 2.98739 39.9101 3.3244C40.1096 3.66141 40.2404 4.03347 40.3024 4.44058H38.7737ZM41.822 10.0781V1.79571H43.3223V8.8204H46.9702V10.0781H41.822ZM55.3506 5.93692C55.3506 6.82933 55.1835 7.59367 54.8492 8.22995C54.5176 8.86353 54.0646 9.34883 53.4903 9.68584C52.9188 10.0229 52.2704 10.1914 51.5451 10.1914C50.8199 10.1914 50.1701 10.0229 49.5958 9.68584C49.0243 9.34613 48.5713 8.85949 48.237 8.22591C47.9054 7.58963 47.7396 6.82663 47.7396 5.93692C47.7396 5.04451 47.9054 4.28152 48.237 3.64793C48.5713 3.01165 49.0243 2.52501 49.5958 2.18799C50.1701 1.85098 50.8199 1.68248 51.5451 1.68248C52.2704 1.68248 52.9188 1.85098 53.4903 2.18799C54.0646 2.52501 54.5176 3.01165 54.8492 3.64793C55.1835 4.28152 55.3506 5.04451 55.3506 5.93692ZM53.8422 5.93692C53.8422 5.30873 53.7438 4.77895 53.547 4.34757C53.3528 3.9135 53.0832 3.58592 52.7381 3.36484C52.393 3.14107 51.9954 3.02918 51.5451 3.02918C51.0949 3.02918 50.6972 3.14107 50.3521 3.36484C50.007 3.58592 49.736 3.9135 49.5392 4.34757C49.3451 4.77895 49.248 5.30873 49.248 5.93692C49.248 6.56511 49.3451 7.09624 49.5392 7.53031C49.736 7.96169 50.007 8.28926 50.3521 8.51304C50.6972 8.73412 51.0949 8.84466 51.5451 8.84466C51.9954 8.84466 52.393 8.73412 52.7381 8.51304C53.0832 8.28926 53.3528 7.96169 53.547 7.53031C53.7438 7.09624 53.8422 6.56511 53.8422 5.93692ZM56.7691 10.0781V1.79571H59.9397C60.5383 1.79571 61.0357 1.89008 61.432 2.0788C61.8311 2.26483 62.129 2.51962 62.3258 2.84315C62.5253 3.16668 62.6251 3.53335 62.6251 3.94316C62.6251 4.28017 62.5603 4.56865 62.4309 4.8086C62.3015 5.04586 62.1276 5.23863 61.9092 5.38691C61.6909 5.5352 61.4469 5.6417 61.1772 5.7064V5.78729C61.4711 5.80346 61.7529 5.89378 62.0225 6.05824C62.2948 6.22001 62.5172 6.44918 62.6898 6.74575C62.8623 7.04232 62.9486 7.4009 62.9486 7.82149C62.9486 8.25017 62.8448 8.63571 62.6372 8.97812C62.4296 9.31783 62.1168 9.58609 61.6989 9.7829C61.281 9.97972 60.7553 10.0781 60.1217 10.0781H56.7691ZM58.2695 8.82444H59.8831C60.4277 8.82444 60.82 8.72064 61.06 8.51304C61.3026 8.30274 61.4239 8.03313 61.4239 7.70421C61.4239 7.45887 61.3633 7.23779 61.242 7.04097C61.1206 6.84146 60.9481 6.68509 60.7243 6.57185C60.5005 6.45592 60.2336 6.39795 59.9236 6.39795H58.2695V8.82444ZM58.2695 5.31816H59.7537C60.0125 5.31816 60.2457 5.27098 60.4533 5.17662C60.6609 5.07956 60.8241 4.94341 60.9427 4.76816C61.064 4.59022 61.1247 4.37992 61.1247 4.13727C61.1247 3.81644 61.0114 3.55222 60.785 3.34462C60.5612 3.13702 60.2282 3.03322 59.7861 3.03322H58.2695V5.31816ZM65.3174 10.0781H63.716L66.6318 1.79571H68.484L71.4039 10.0781H69.8024L67.5903 3.49425H67.5255L65.3174 10.0781ZM65.37 6.83068H69.7377V8.03583H65.37V6.83068ZM72.4948 10.0781V1.79571H73.9952V8.8204H77.643V10.0781H72.4948ZM32.8611 15.0534V13.7957H39.4693V15.0534H36.9093V22.0781H35.4211V15.0534H32.8611ZM40.7432 22.0781V13.7957H43.8491C44.4854 13.7957 45.0192 13.9063 45.4506 14.1273C45.8846 14.3484 46.2122 14.6585 46.4333 15.0575C46.6571 15.4538 46.769 15.9162 46.769 16.4446C46.769 16.9758 46.6557 17.4368 46.4293 17.8277C46.2055 18.216 45.8752 18.5166 45.4384 18.7296C45.0017 18.9399 44.4652 19.045 43.8289 19.045H41.6167V17.7994H43.6267C43.9987 17.7994 44.3034 17.7482 44.5406 17.6457C44.7779 17.5406 44.9531 17.3883 45.0664 17.1888C45.1823 16.9865 45.2403 16.7385 45.2403 16.4446C45.2403 16.1508 45.1823 15.9 45.0664 15.6924C44.9504 15.4821 44.7739 15.3231 44.5366 15.2152C44.2993 15.1047 43.9933 15.0494 43.6186 15.0494H42.2436V22.0781H40.7432ZM45.0219 18.3252L47.0723 22.0781H45.398L43.384 18.3252H45.0219ZM49.2137 22.0781H47.6122L50.528 13.7957H52.3802L55.3001 22.0781H53.6986L51.4865 15.4943H51.4218L49.2137 22.0781ZM49.2662 18.8307H53.6339V20.0358H49.2662V18.8307ZM63.1973 13.7957V22.0781H61.8627L57.9601 16.4365H57.8914V22.0781H56.391V13.7957H57.7337L61.6322 19.4413H61.705V13.7957H63.1973ZM69.3333 16.0726C69.2955 15.7194 69.1365 15.4444 68.8561 15.2476C68.5784 15.0507 68.2171 14.9523 67.7722 14.9523C67.4595 14.9523 67.1912 14.9995 66.9675 15.0939C66.7437 15.1882 66.5725 15.3163 66.4539 15.4781C66.3352 15.6398 66.2746 15.8245 66.2719 16.0321C66.2719 16.2047 66.311 16.3543 66.3891 16.481C66.47 16.6077 66.5792 16.7156 66.7167 16.8046C66.8542 16.8908 67.0066 16.9636 67.1737 17.0229C67.3409 17.0823 67.5094 17.1321 67.6792 17.1726L68.4557 17.3667C68.7685 17.4395 69.0691 17.5379 69.3575 17.6619C69.6487 17.7859 69.9089 17.9423 70.1381 18.131C70.3699 18.3198 70.5533 18.5476 70.6881 18.8145C70.8229 19.0814 70.8903 19.3942 70.8903 19.7527C70.8903 20.238 70.7663 20.6654 70.5182 21.0347C70.2702 21.4014 69.9116 21.6885 69.4425 21.8961C68.976 22.101 68.4112 22.2035 67.748 22.2035C67.1036 22.2035 66.5442 22.1037 66.0697 21.9042C65.5978 21.7047 65.2285 21.4135 64.9616 21.0307C64.6973 20.6478 64.5544 20.1814 64.5329 19.6314H66.009C66.0306 19.9199 66.1195 20.1599 66.2759 20.3513C66.4323 20.5427 66.6358 20.6856 66.8866 20.78C67.14 20.8743 67.4231 20.9215 67.7358 20.9215C68.0621 20.9215 68.3479 20.873 68.5932 20.7759C68.8412 20.6762 69.0354 20.5387 69.1756 20.3634C69.3158 20.1855 69.3872 19.9779 69.3899 19.7406C69.3872 19.5249 69.3238 19.347 69.1998 19.2068C69.0758 19.0639 68.9019 18.9453 68.6781 18.8509C68.4571 18.7538 68.1982 18.6676 67.9017 18.5921L66.9594 18.3494C66.2773 18.1742 65.738 17.9086 65.3417 17.5527C64.9481 17.1941 64.7513 16.7183 64.7513 16.1251C64.7513 15.6371 64.8834 15.2098 65.1476 14.8431C65.4145 14.4765 65.7771 14.192 66.2355 13.9898C66.6938 13.7849 67.2128 13.6825 67.7925 13.6825C68.3802 13.6825 68.8952 13.7849 69.3373 13.9898C69.7822 14.192 70.1313 14.4738 70.3848 14.8351C70.6382 15.1936 70.769 15.6061 70.777 16.0726H69.3333ZM72.2279 22.0781V13.7957H77.5338V15.0534H73.7283V17.302H77.1698V18.5597H73.7283V22.0781H72.2279ZM78.9007 22.0781V13.7957H84.2875V15.0534H80.4011V17.302H84.0085V18.5597H80.4011V20.8204H84.3199V22.0781H78.9007ZM85.8182 22.0781V13.7957H88.9241C89.5604 13.7957 90.0942 13.9063 90.5256 14.1273C90.9597 14.3484 91.2873 14.6585 91.5083 15.0575C91.7321 15.4538 91.844 15.9162 91.844 16.4446C91.844 16.9758 91.7308 17.4368 91.5043 17.8277C91.2805 18.216 90.9503 18.5166 90.5135 18.7296C90.0767 18.9399 89.5402 19.045 88.9039 19.045H86.6918V17.7994H88.7017C89.0738 17.7994 89.3784 17.7482 89.6157 17.6457C89.8529 17.5406 90.0282 17.3883 90.1414 17.1888C90.2574 16.9865 90.3153 16.7385 90.3153 16.4446C90.3153 16.1508 90.2574 15.9 90.1414 15.6924C90.0255 15.4821 89.8489 15.3231 89.6116 15.2152C89.3744 15.1047 89.0684 15.0494 88.6936 15.0494H87.3186V22.0781H85.8182ZM90.0969 18.3252L92.1473 22.0781H90.473L88.4591 18.3252H90.0969Z" fill="#D5FD5F"/>
<g clip-path="url(#clip0_3006_227)">
<path d="M21.4293 24.0254H2.59607C1.16232 24.0254 0 22.8631 0 21.4293V2.59607C0 1.16232 1.16232 0 2.59607 0H21.4293C22.8631 0 24.0254 1.16232 24.0254 2.59607V21.4293C24.0254 22.8631 22.8631 24.0254 21.4293 24.0254Z" fill="#D5FD5F"/>
<path d="M12.0088 11.7463C12.0088 15.5226 10.3627 18.3061 8.23522 20.1793C11.8281 19.4246 14.5781 15.4514 14.5781 11.1753C14.5815 10.8272 14.5759 10.4758 14.5611 10.1657L17.3383 9.21679C17.6897 9.09408 17.9142 8.90281 17.9151 8.5668C17.9163 8.34004 17.9171 8.22282 17.9171 8.22282C16.4159 8.19536 10.9728 8.01523 10.9728 8.01523C11.4825 8.8175 12.0088 10.1944 12.0088 11.7463ZM10.7606 7.04803C13.3075 7.43391 14.8892 7.13113 14.8892 7.13113C14.8892 7.13113 14.526 5.79159 13.473 5.78644C11.8061 5.77973 10.6313 5.61082 10.6313 5.61082C7.07576 5.07289 6.1543 3.81641 6.1543 3.81641C6.36188 5.20103 8.48532 6.7018 10.7606 7.04803Z" fill="#2A2D2F"/>
</g>
<defs>
<clipPath id="clip0_3006_227">
<rect width="24.0254" height="24.0254" fill="white"/>
</clipPath>
</defs>
</svg>
