<svg width="17" height="19" viewBox="0 0 17 19" fill="none" xmlns="http://www.w3.org/2000/svg">
<path d="M8.27218 9.5962C10.9122 9.5962 13.0703 7.43812 13.0703 4.7981C13.0703 2.15809 10.9122 0 8.27218 0C5.63216 0 3.47411 2.15809 3.47411 4.7981C3.47411 7.43812 5.6322 9.5962 8.27218 9.5962ZM16.5065 13.4305C16.3808 13.1162 16.2132 12.8229 16.0246 12.5505C15.0608 11.1257 13.5732 10.1828 11.897 9.95237C11.6875 9.93144 11.457 9.9733 11.2894 10.099C10.4094 10.7486 9.36177 11.0838 8.27222 11.0838C7.18267 11.0838 6.13507 10.7486 5.25506 10.099C5.08743 9.9733 4.85695 9.91046 4.64744 9.95237C2.97125 10.1828 1.46269 11.1257 0.519841 12.5505C0.331271 12.8229 0.163636 13.1372 0.0379496 13.4305C-0.0248937 13.5562 -0.0039593 13.7029 0.0588839 13.8286C0.226519 14.1219 0.436023 14.4153 0.624593 14.6667C0.917915 15.0648 1.23221 15.421 1.58842 15.7562C1.88174 16.0495 2.21697 16.3219 2.55224 16.5943C4.20746 17.8305 6.19795 18.48 8.25128 18.48C10.3046 18.48 12.2951 17.8305 13.9503 16.5943C14.2856 16.3429 14.6208 16.0495 14.9141 15.7562C15.2494 15.421 15.5846 15.0648 15.878 14.6667C16.0875 14.3943 16.2761 14.1219 16.4437 13.8286C16.5484 13.7029 16.5693 13.5562 16.5065 13.4305Z" fill="#A7A7A7"/>
</svg>
