<svg width="33" height="33" viewBox="0 3 33 33" fill="none" xmlns="http://www.w3.org/2000/svg">
<ellipse cx="16.335" cy="19.3048" rx="16.335" ry="16.336" fill="#D5FD5F"/>
<path d="M12.7102 19.2679C12.7102 18.6038 12.738 17.9545 12.7911 17.329H9.67361C9.49891 17.9452 9.4054 18.5957 9.4054 19.2679C9.4054 19.9402 9.49891 20.5906 9.67361 21.2069H12.7911C12.738 20.5813 12.7102 19.932 12.7102 19.2679ZM14.9183 23.0577C15.0372 23.6401 15.1817 24.168 15.3459 24.6278C15.5844 25.2957 15.8468 25.7706 16.0919 26.0609C16.3407 26.3554 16.4823 26.3628 16.4998 26.3628C16.5172 26.3628 16.6589 26.3554 16.9076 26.0609C17.1527 25.7706 17.4152 25.2957 17.6537 24.6278C17.8179 24.168 17.9624 23.6401 18.0813 23.0577H14.9183ZM10.5014 23.0577C11.29 24.3034 12.4558 25.2865 13.8384 25.8465C13.7547 25.6546 13.6763 25.4554 13.6031 25.2503C13.3717 24.6024 13.1796 23.8631 13.0336 23.0577H10.5014ZM19.966 23.0577C19.82 23.8631 19.6279 24.6024 19.3965 25.2503C19.3233 25.4554 19.2448 25.6546 19.1612 25.8465C20.5437 25.2866 21.7096 24.3035 22.4982 23.0577H19.966ZM19.1612 12.6893C19.2448 12.8812 19.3233 13.0805 19.3965 13.2855C19.6279 13.9334 19.82 14.6727 19.966 15.4781H22.4982C21.7096 14.2324 20.5437 13.2492 19.1612 12.6893ZM16.4998 12.1731C16.4823 12.1731 16.3407 12.1804 16.0919 12.475C15.8468 12.7653 15.5844 13.2402 15.3459 13.908C15.1817 14.3678 15.0372 14.8957 14.9183 15.4781H18.0813C17.9624 14.8957 17.8179 14.3678 17.6537 13.908C17.4152 13.2402 17.1527 12.7653 16.9076 12.475C16.6589 12.1804 16.5172 12.1731 16.4998 12.1731ZM13.8384 12.6893C12.4558 13.2492 11.29 14.2324 10.5014 15.4781H13.0336C13.1796 14.6727 13.3717 13.9334 13.6031 13.2855C13.6763 13.0805 13.7547 12.8812 13.8384 12.6893ZM14.5609 19.2679C14.5609 19.9417 14.5919 20.5914 14.6491 21.2069H18.3505C18.4077 20.5914 18.4386 19.9417 18.4386 19.2679C18.4386 18.5941 18.4077 17.9444 18.3505 17.329H14.6491C14.5919 17.9444 14.5609 18.5941 14.5609 19.2679ZM20.2894 19.2679C20.2894 19.932 20.2616 20.5813 20.2085 21.2069H23.326C23.5007 20.5906 23.5942 19.9402 23.5942 19.2679C23.5942 18.5957 23.5007 17.9452 23.326 17.329H20.2085C20.2616 17.9545 20.2894 18.6038 20.2894 19.2679ZM25.4449 19.2679C25.4449 24.2085 21.44 28.2136 16.4998 28.2136C11.5595 28.2136 7.55469 24.2085 7.55469 19.2679C7.55469 14.3274 11.5595 10.3223 16.4998 10.3223C21.44 10.3223 25.4449 14.3274 25.4449 19.2679Z" fill="#25272E"/>
</svg>
