<svg width="69" height="66" viewBox="0 0 69 66" fill="none" xmlns="http://www.w3.org/2000/svg">
<path d="M64.8742 23.0792C63.5323 22.8843 62.2517 22.3891 61.1277 21.6307C60.0036 20.8722 59.0652 19.8699 58.3822 18.6985C57.6993 17.5271 57.2894 16.2166 57.1831 14.8648C57.0767 13.513 57.2768 12.1546 57.7682 10.8908C58.0806 10.0646 58.1266 9.16135 57.8998 8.30766C57.673 7.45397 57.1847 6.69267 56.5034 6.13048C53.4954 3.60465 50.0717 1.62043 46.3847 0.266279C45.5452 -0.0455981 44.6286 -0.0845647 43.7656 0.15493C42.9026 0.394425 42.1372 0.900164 41.5784 1.6001C40.7374 2.67555 39.6624 3.54537 38.4352 4.14358C37.208 4.74179 35.8606 5.05268 34.4954 5.05268C33.1301 5.05268 31.7827 4.74179 30.5555 4.14358C29.3283 3.54537 28.2534 2.67555 27.4123 1.6001C26.8535 0.900164 26.0881 0.394425 25.2251 0.15493C24.3621 -0.0845647 23.4455 -0.0455981 22.606 0.266279C19.2017 1.51649 16.0187 3.30204 13.1773 5.55556C12.461 6.12258 11.9451 6.90402 11.7051 7.78545C11.4651 8.66689 11.5136 9.60201 11.8434 10.4539C12.3741 11.7511 12.5934 13.1547 12.4836 14.5519C12.3739 15.9492 11.9382 17.3013 11.2115 18.4998C10.4848 19.6982 9.48735 20.7097 8.29914 21.4531C7.11094 22.1964 5.76506 22.651 4.36946 22.7802C3.4634 22.8771 2.61238 23.2623 1.9417 23.8792C1.27102 24.496 0.816117 25.3119 0.643962 26.2068C0.215755 28.3264 4.97661e-05 30.4834 4.97661e-05 32.6459C-0.00309757 34.4562 0.143045 36.2638 0.43699 38.0501C0.583285 38.9736 1.02973 39.8232 1.70729 40.4675C2.38486 41.1118 3.25581 41.515 4.18548 41.6147C5.61173 41.7485 6.98518 42.222 8.19086 42.9956C9.39654 43.7692 10.3994 44.8204 11.1154 46.0611C11.8315 47.3018 12.2399 48.696 12.3066 50.127C12.3732 51.5579 12.0961 52.984 11.4985 54.2859C11.1074 55.1328 11.0104 56.086 11.2228 56.9943C11.4353 57.9025 11.9451 58.7138 12.6713 59.2993C15.6612 61.7792 19.052 63.7313 22.698 65.0715C23.1642 65.233 23.6534 65.3184 24.1468 65.3244C24.8233 65.323 25.4896 65.1593 26.0898 64.8472C26.69 64.5351 27.2066 64.0836 27.5963 63.5307C28.4159 62.3365 29.5147 61.3604 30.7971 60.6871C32.0795 60.0138 33.5069 59.6637 34.9553 59.6672C36.3587 59.669 37.7423 59.9984 38.9959 60.6292C40.2495 61.26 41.3386 62.1748 42.1763 63.3007C42.7336 64.0498 43.5229 64.5935 44.4213 64.8472C45.3198 65.1009 46.2769 65.0504 47.1436 64.7035C50.4775 63.3618 53.5812 61.5073 56.3424 59.2073C57.036 58.6338 57.5299 57.8551 57.753 56.9832C57.9762 56.1113 57.9171 55.1911 57.5842 54.3549C57.0433 53.0744 56.8075 51.6857 56.8953 50.2984C56.9831 48.9111 57.3922 47.5633 58.0903 46.3612C58.7883 45.1591 59.7562 44.1357 60.9176 43.3719C62.079 42.608 63.402 42.1245 64.7822 41.9596C65.6772 41.8358 66.5096 41.4304 67.1588 40.8019C67.8079 40.1734 68.2401 39.3546 68.3928 38.4641C68.7621 36.5459 68.9622 34.599 68.9907 32.6459C68.9911 30.5857 68.7986 28.53 68.4157 26.5057C68.2605 25.6348 67.8347 24.835 67.199 24.2199C66.5632 23.6048 65.7498 23.2056 64.8742 23.0792ZM45.9938 32.6459C45.9938 34.9201 45.3194 37.1432 44.056 39.0341C42.7925 40.925 40.9967 42.3988 38.8956 43.2691C36.7946 44.1393 34.4826 44.367 32.2521 43.9234C30.0217 43.4797 27.9728 42.3846 26.3647 40.7765C24.7567 39.1684 23.6615 37.1196 23.2179 34.8891C22.7742 32.6586 23.0019 30.3467 23.8722 28.2456C24.7425 26.1446 26.2163 24.3487 28.1072 23.0853C29.9981 21.8218 32.2212 21.1474 34.4954 21.1474C37.5449 21.1474 40.4696 22.3589 42.626 24.5153C44.7824 26.6716 45.9938 29.5963 45.9938 32.6459Z" fill="#98bded"/>
</svg>
