<svg width="16" height="15" viewBox="0 0 16 15" fill="none" xmlns="http://www.w3.org/2000/svg">
<path d="M14.4769 4V8.35476C14.4769 8.72041 14.4049 9.08248 14.2649 9.4203C14.125 9.75811 13.9199 10.0651 13.6614 10.3236C13.4028 10.5822 13.0959 10.7873 12.758 10.9272C12.4202 11.0671 12.0582 11.1391 11.6925 11.1391H4.45312V11.696C4.45445 12.1387 4.63088 12.5628 4.9439 12.8759C5.25692 13.1889 5.68108 13.3653 6.12375 13.3666H12.5445C12.6316 13.3678 12.7173 13.3887 12.7951 13.4279L14.7832 14.4191C14.861 14.4583 14.9467 14.4793 15.0338 14.4804C15.138 14.4803 15.2401 14.4514 15.3289 14.3969C15.4091 14.3467 15.4753 14.2769 15.5211 14.1941C15.5669 14.1113 15.5908 14.0181 15.5906 13.9235V5.57039C15.5897 5.22571 15.4821 4.88977 15.2827 4.60863C15.0833 4.32748 14.8018 4.11489 14.4769 4Z" fill="#A7A7A7"/>
<path d="M13.365 8.35312V1.67062C13.365 1.22755 13.189 0.802618 12.8757 0.489315C12.5624 0.176012 12.1375 0 11.6944 0H1.67062C1.22755 0 0.802618 0.176012 0.489315 0.489315C0.176012 0.802618 3.92344e-08 1.22755 3.92344e-08 1.67062V11.6944C-3.93428e-05 11.7993 0.0295696 11.9021 0.0854152 11.991C0.141261 12.0798 0.22107 12.151 0.315647 12.1965C0.410224 12.242 0.515719 12.2598 0.619976 12.2479C0.724233 12.236 0.823009 12.1949 0.904922 12.1293L3.38413 10.1457C3.48263 10.0669 3.60494 10.0239 3.73106 10.0237H11.6944C12.1375 10.0237 12.5624 9.84774 12.8757 9.53444C13.189 9.22113 13.365 8.7962 13.365 8.35312ZM7.19482 7.45099C7.16981 7.52009 7.12991 7.58285 7.07794 7.63482C7.02598 7.68679 6.96322 7.72669 6.89411 7.7517C6.82743 7.78106 6.75536 7.79622 6.6825 7.79622C6.60964 7.79622 6.53757 7.78106 6.47089 7.7517C6.40178 7.72669 6.33902 7.68679 6.28705 7.63482C6.23509 7.58285 6.19519 7.52009 6.17017 7.45099C6.14164 7.38404 6.1265 7.31215 6.12562 7.23937C6.12779 7.09196 6.18545 6.95077 6.28712 6.84399C6.34128 6.79485 6.40343 6.7553 6.47089 6.72705C6.53732 6.69676 6.60949 6.68109 6.6825 6.68109C6.75551 6.68109 6.82768 6.69676 6.89411 6.72705C6.96157 6.7553 7.02372 6.79485 7.07788 6.84399C7.18046 6.95018 7.23828 7.09174 7.23937 7.23937C7.2385 7.31215 7.22336 7.38404 7.19482 7.45099ZM7.30119 5.50192C7.27088 5.5201 7.24611 5.54619 7.22953 5.57739C7.21294 5.60859 7.20518 5.64373 7.20708 5.67901C7.20708 5.8267 7.14841 5.96835 7.04397 6.07278C6.93954 6.17722 6.79789 6.23589 6.6502 6.23589C6.50251 6.23589 6.36087 6.17722 6.25643 6.07278C6.152 5.96835 6.09333 5.8267 6.09333 5.67901C6.08953 5.42349 6.16157 5.17258 6.30034 4.95799C6.4391 4.74339 6.63837 4.57475 6.87295 4.47338C6.99006 4.42481 7.08839 4.33979 7.15338 4.23093C7.21836 4.12207 7.24654 3.99517 7.23372 3.86904C7.22091 3.74291 7.16779 3.62427 7.08224 3.5307C6.9967 3.43714 6.88327 3.37363 6.75879 3.3496C6.62003 3.3243 6.47679 3.34896 6.35447 3.41919C6.23215 3.48942 6.13865 3.6007 6.09054 3.73329C6.04007 3.8712 5.93716 3.98358 5.80423 4.04599C5.6713 4.10839 5.51909 4.11576 5.38075 4.06649C5.24241 4.01722 5.12913 3.9153 5.06558 3.78291C5.00202 3.65052 4.99332 3.49839 5.04139 3.35963C5.1361 3.09191 5.29623 2.85213 5.50723 2.66207C5.71822 2.47201 5.97338 2.33772 6.2495 2.2714C6.52562 2.20508 6.81394 2.20884 7.08824 2.28234C7.36253 2.35584 7.6141 2.49674 7.82007 2.69224C8.02603 2.88774 8.17986 3.13162 8.26755 3.40171C8.35525 3.67181 8.37403 3.95954 8.32219 4.23874C8.27035 4.51794 8.14954 4.77975 7.97074 5.00036C7.79193 5.22098 7.56082 5.39339 7.2984 5.50192H7.30119Z" fill="#A7A7A7"/>
</svg>
