<svg width="18" height="18" viewBox="0 0 18 18" fill="none" xmlns="http://www.w3.org/2000/svg">
<g clip-path="url(#clip0_1009_352)">
<path d="M16.6493 2.49399C16.6336 2.38155 16.5855 2.27614 16.5107 2.19071C16.436 2.10528 16.3379 2.04355 16.2285 2.01312L9.06637 0.0213149C8.96426 -0.00710497 8.85633 -0.00710497 8.75423 0.0213149L1.59206 2.01312C1.48269 2.04353 1.38459 2.10526 1.30984 2.19069C1.23508 2.27612 1.18692 2.38154 1.17129 2.49399C1.12975 2.79269 0.182067 9.8505 2.61281 13.3615C5.04068 16.8684 8.6223 17.7671 8.77356 17.8037C8.86342 17.8254 8.95717 17.8254 9.04703 17.8037C9.19837 17.7671 12.78 16.8684 15.2078 13.3615C17.6385 9.85058 16.6908 2.79277 16.6493 2.49399ZM13.529 6.6144L8.64366 11.4997C8.52998 11.6134 8.3809 11.6703 8.23189 11.6703C8.08289 11.6703 7.93381 11.6135 7.82013 11.4997L4.79958 8.47918C4.74549 8.42512 4.70257 8.36093 4.67329 8.29027C4.64401 8.21962 4.62894 8.14389 4.62894 8.06741C4.62894 7.99094 4.64401 7.91521 4.67329 7.84455C4.70257 7.7739 4.74549 7.70971 4.79958 7.65565L5.39933 7.05591C5.50854 6.94671 5.65665 6.88536 5.81109 6.88536C5.96553 6.88536 6.11364 6.94671 6.22285 7.05591L8.23189 9.06495L12.1057 5.19106C12.1598 5.13696 12.224 5.09404 12.2946 5.06477C12.3653 5.03549 12.441 5.02042 12.5175 5.02042C12.5939 5.02042 12.6697 5.03549 12.7403 5.06477C12.811 5.09404 12.8752 5.13696 12.9292 5.19106L13.529 5.7908C13.5831 5.84488 13.626 5.90908 13.6552 5.97974C13.6845 6.05039 13.6996 6.12612 13.6996 6.2026C13.6996 6.27908 13.6845 6.35481 13.6552 6.42547C13.626 6.49613 13.5831 6.56033 13.529 6.6144Z" fill="#A7A7A7"/>
</g>
<defs>
<clipPath id="clip0_1009_352">
<rect width="17.82" height="17.82" fill="white"/>
</clipPath>
</defs>
</svg>
