<svg width="11" height="11" viewBox="0 0 11 11" fill="none" xmlns="http://www.w3.org/2000/svg">
<g clip-path="url(#clip0_1024_436)">
<path d="M1.00104 10.4945C0.742147 10.5096 0.487528 10.4235 0.290869 10.2544C-0.0969564 9.86431 -0.0969564 9.23422 0.290869 8.84409L8.78298 0.35194C9.18635 -0.0255095 9.81931 -0.00452732 10.1968 0.398846C10.5381 0.763614 10.558 1.32427 10.2433 1.7123L1.70119 10.2544C1.50709 10.421 1.25653 10.507 1.00104 10.4945Z" fill="#FF3838"/>
<path d="M9.47972 10.4937C9.21732 10.4926 8.96585 10.3884 8.77954 10.2036L0.28739 1.71143C-0.0719103 1.29185 -0.0230615 0.660402 0.396518 0.301069C0.771003 -0.0196271 1.32329 -0.0196271 1.69775 0.301069L10.2399 8.79321C10.6432 9.17076 10.664 9.80375 10.2865 10.207C10.2714 10.2231 10.2559 10.2386 10.2399 10.2536C10.1364 10.3436 10.0155 10.4113 9.88476 10.4526C9.75399 10.4939 9.61612 10.5079 9.47972 10.4937Z" fill="#FF3838"/>
</g>
<defs>
<clipPath id="clip0_1024_436">
<rect width="10.56" height="10.56" fill="white"/>
</clipPath>
</defs>
</svg>
